<?xml version="1.0" encoding="UTF-8" standalone="no"?>
<svg width="61px" height="61px" viewBox="0 0 61 61" version="1.1" xmlns="http://www.w3.org/2000/svg" xmlns:xlink="http://www.w3.org/1999/xlink">
    <!-- Generator: Sketch 40.1 (33804) - http://www.bohemiancoding.com/sketch -->
    <title>Logo</title>
    <desc>Created with Sketch.</desc>
    <defs></defs>
    <g id="-Symbols" stroke="none" stroke-width="1" fill="none" fill-rule="evenodd">
        <g id="Global-/-Navigation" transform="translate(0.000000, 1.000000)">
            <g id="nav">
                <g id="Logo" transform="translate(30.000000, 30.000000) rotate(-270.000000) translate(-30.000000, -30.000000) ">
                    <path d="M29.7863077,1.38461538 C14.1253846,1.38461538 1.38507692,14.1258462 1.38507692,29.7867692 C1.38507692,45.4486154 14.1253846,58.1907692 29.7863077,58.1907692 C45.4481538,58.1907692 58.1893846,45.4486154 58.1893846,29.7867692 C58.1893846,14.1258462 45.4481538,1.38461538 29.7863077,1.38461538 M29.7863077,59.1138462 C13.6158462,59.1138462 0.462,45.9581538 0.462,29.7867692 C0.462,13.6163077 13.6158462,0.461538462 29.7863077,0.461538462 C45.9567692,0.461538462 59.1124615,13.6163077 59.1124615,29.7867692 C59.1124615,45.9581538 45.9567692,59.1138462 29.7863077,59.1138462" id="Fill-1" fill="#DBD9D6"></path>
                    <path d="M29.7863077,1.38461538 C14.1253846,1.38461538 1.38507692,14.1258462 1.38507692,29.7867692 C1.38507692,45.4486154 14.1253846,58.1907692 29.7863077,58.1907692 C45.4481538,58.1907692 58.1893846,45.4486154 58.1893846,29.7867692 C58.1893846,14.1258462 45.4481538,1.38461538 29.7863077,1.38461538 L29.7863077,1.38461538 Z M29.7863077,59.1138462 C13.6158462,59.1138462 0.462,45.9581538 0.462,29.7867692 C0.462,13.6163077 13.6158462,0.461538462 29.7863077,0.461538462 C45.9567692,0.461538462 59.1124615,13.6163077 59.1124615,29.7867692 C59.1124615,45.9581538 45.9567692,59.1138462 29.7863077,59.1138462 L29.7863077,59.1138462 Z" id="Stroke-3" stroke="#DBD9D6"></path>
                    <path d="M22.7658462,34.9115077 L16.3652308,23.8225846 L16.2452308,23.6315077 L16.2147692,23.5936615 L16.212,23.5955077 C15.9369231,23.2253538 15.5233846,23.0139692 15.0738462,23.0139692 C14.2790769,23.0139692 13.632,23.6610462 13.632,24.4558154 L13.632,36.5185846 L14.5264615,36.5185846 L14.5264615,24.4558154 C14.5264615,24.1548923 14.772,23.9093538 15.0738462,23.9093538 C15.276,23.9093538 15.4615385,24.0284308 15.5603077,24.2213538 L21.8972308,35.1985846 L22.0153846,35.3998154 C22.3273846,35.8512 22.7944615,36.1964308 23.3307692,36.3718154 C23.58,36.4548923 23.8098462,36.5001231 24.0378462,36.5093538 L26.3289231,36.5176615 L26.3750769,36.5185846 L26.3750769,35.6158154 L24.1301538,35.6158154 C23.5864615,35.6158154 23.0750769,35.3508923 22.7658462,34.9115077" id="Fill-5" fill="#DBD9D6"></path>
                    <path d="M22.7658462,34.9115077 L16.3652308,23.8225846 L16.2452308,23.6315077 L16.2147692,23.5936615 L16.212,23.5955077 C15.9369231,23.2253538 15.5233846,23.0139692 15.0738462,23.0139692 C14.2790769,23.0139692 13.632,23.6610462 13.632,24.4558154 L13.632,36.5185846 L14.5264615,36.5185846 L14.5264615,24.4558154 C14.5264615,24.1548923 14.772,23.9093538 15.0738462,23.9093538 C15.276,23.9093538 15.4615385,24.0284308 15.5603077,24.2213538 L21.8972308,35.1985846 L22.0153846,35.3998154 C22.3273846,35.8512 22.7944615,36.1964308 23.3307692,36.3718154 C23.58,36.4548923 23.8098462,36.5001231 24.0378462,36.5093538 L26.3289231,36.5176615 L26.3750769,36.5185846 L26.3750769,35.6158154 L24.1301538,35.6158154 C23.5864615,35.6158154 23.0750769,35.3508923 22.7658462,34.9115077 L22.7658462,34.9115077 Z" id="Stroke-7" stroke="#DBD9D6"></path>
                    <path d="M44.5158462,23.0142462 C44.0616923,23.0142462 43.6472308,23.2284 43.3730769,23.6022462 L43.3573846,23.5930154 L37.3121538,34.0671692 L37.3056923,34.0671692 L37.158,34.3320923 C36.8423077,34.8074769 36.3152308,35.0917846 35.7475385,35.0917846 C35.1493846,35.0917846 34.6075385,34.7816308 34.2946154,34.2619385 L34.2927692,34.2582462 L33.9909231,33.7154769 L33.9909231,33.7357846 L33.5127692,32.9068615 L33.5164615,32.9050154 L28.5696923,24.3342462 L28.4515385,24.1320923 C28.1386154,23.6807077 27.6715385,23.3364 27.1361538,23.1600923 C26.8869231,23.0770154 26.6561538,23.0327077 26.4281538,23.0225538 L24.1370769,23.0142462 L24.0909231,23.0142462 L24.0909231,23.9170154 L26.3367692,23.9170154 C26.8795385,23.9170154 27.39,24.1819385 27.7001538,24.6213231 L32.0293846,32.1204 L32.0256923,32.1231692 L33.6050769,34.8582462 C33.9069231,35.2994769 34.3583077,35.6391692 34.8770769,35.8247077 L34.8807692,35.8311692 L34.9296923,35.8468615 L35.2758462,35.9631692 L35.2583077,35.9317846 C35.4244615,35.9668615 35.5887692,35.9908615 35.7475385,35.9908615 C35.9053846,35.9908615 36.0687692,35.9668615 36.2349231,35.9317846 L36.2173846,35.9631692 L36.5635385,35.8468615 L36.6143077,35.8311692 L36.6170769,35.8247077 C37.1349231,35.6391692 37.5863077,35.2976308 37.8936923,34.8490154 L44.034,24.2133231 C44.1281538,24.0259385 44.3127692,23.9096308 44.5158462,23.9096308 C44.8176923,23.9096308 45.0641538,24.1542462 45.0641538,24.4560923 L45.0641538,36.5188615 L45.9576923,36.5188615 L45.9576923,24.4560923 C45.9576923,23.6613231 45.3106154,23.0142462 44.5158462,23.0142462" id="Fill-9" fill="#DBD9D6"></path>
                    <path d="M44.5158462,23.0142462 C44.0616923,23.0142462 43.6472308,23.2284 43.3730769,23.6022462 L43.3573846,23.5930154 L37.3121538,34.0671692 L37.3056923,34.0671692 L37.158,34.3320923 C36.8423077,34.8074769 36.3152308,35.0917846 35.7475385,35.0917846 C35.1493846,35.0917846 34.6075385,34.7816308 34.2946154,34.2619385 L34.2927692,34.2582462 L33.9909231,33.7154769 L33.9909231,33.7357846 L33.5127692,32.9068615 L33.5164615,32.9050154 L28.5696923,24.3342462 L28.4515385,24.1320923 C28.1386154,23.6807077 27.6715385,23.3364 27.1361538,23.1600923 C26.8869231,23.0770154 26.6561538,23.0327077 26.4281538,23.0225538 L24.1370769,23.0142462 L24.0909231,23.0142462 L24.0909231,23.9170154 L26.3367692,23.9170154 C26.8795385,23.9170154 27.39,24.1819385 27.7001538,24.6213231 L32.0293846,32.1204 L32.0256923,32.1231692 L33.6050769,34.8582462 C33.9069231,35.2994769 34.3583077,35.6391692 34.8770769,35.8247077 L34.8807692,35.8311692 L34.9296923,35.8468615 L35.2758462,35.9631692 L35.2583077,35.9317846 C35.4244615,35.9668615 35.5887692,35.9908615 35.7475385,35.9908615 C35.9053846,35.9908615 36.0687692,35.9668615 36.2349231,35.9317846 L36.2173846,35.9631692 L36.5635385,35.8468615 L36.6143077,35.8311692 L36.6170769,35.8247077 C37.1349231,35.6391692 37.5863077,35.2976308 37.8936923,34.8490154 L44.034,24.2133231 C44.1281538,24.0259385 44.3127692,23.9096308 44.5158462,23.9096308 C44.8176923,23.9096308 45.0641538,24.1542462 45.0641538,24.4560923 L45.0641538,36.5188615 L45.9576923,36.5188615 L45.9576923,24.4560923 C45.9576923,23.6613231 45.3106154,23.0142462 44.5158462,23.0142462 L44.5158462,23.0142462 Z" id="Stroke-11" stroke="#DBD9D6"></path>
                </g>
            </g>
        </g>
    </g>
</svg>